<svg id="Layer_1" data-name="Layer 1" xmlns="http://www.w3.org/2000/svg" viewBox="0 0 388.62 456.64"><defs><style>.cls-1{fill:#369683;}</style></defs><path class="cls-1" d="M109.77,408.66a66.45,66.45,0,0,0,12.1,88.6L234,591.19a16,16,0,0,0,10.27,3.73H470.7a16,16,0,0,0,16-16V420.62a67.7,67.7,0,0,0-67.7-67.7H349.7v-72c0-37.37-30.33-68.25-67.7-67.59a66.57,66.57,0,0,0-65.3,66.48V403.22l-9.4-7.87A66.58,66.58,0,0,0,109.77,408.66Zm28.4,15.49a34.57,34.57,0,0,1,48.63-4.28l35.65,29.86a16,16,0,0,0,26.25-12.25V280.42c0-20.19,16.53-36.48,36.68-35.22a34.58,34.58,0,0,1,32.32,34.5v89.22a16,16,0,0,0,16,16H419a35.7,35.7,0,0,1,35.7,35.7v142.3H250.08L142.46,472.76a34.49,34.49,0,0,1-4.29-48.61Z" transform="translate(-98.08 -138.28)"/><path class="cls-1" d="M398.43,329.9a16,16,0,0,0,19.94-10.69,140.52,140.52,0,0,0,6-40.61c0-77.37-62.95-140.32-140.32-140.32S143.7,201.23,143.7,278.6a139.92,139.92,0,0,0,8.46,48.07,16,16,0,1,0,30.06-11A108.32,108.32,0,1,1,387.73,310,16,16,0,0,0,398.43,329.9Z" transform="translate(-98.08 -138.28)"/></svg>